<?xml version="1.0" encoding="utf-8"?>
<!-- Generator: Adobe Illustrator 27.0.0, SVG Export Plug-In . SVG Version: 6.00 Build 0)  -->
<svg version="1.1" id="Слой_1" xmlns="http://www.w3.org/2000/svg" xmlns:xlink="http://www.w3.org/1999/xlink" x="0px" y="0px"
	 viewBox="0 0 595.3 118.2" style="enable-background:new 0 0 595.3 118.2;" xml:space="preserve">
<style type="text/css">
	.st0{fill:#FFFFFF;}
	.st1{fill:#3e3b3f;}
	.st2{fill:none;}
	.st3{font-family:'RussoOne-Regular';}
	.st4{font-size:37.6501px;}
</style>
<circle class="st0" cx="75.9" cy="58.5" r="52.6"/>
<g id="png_group_00000078761749141450611600000001754405112812497833_" transform="translate(0.8357242250050376, 411.8895) scale(0.8133999999999999)">
	<g transform="rotate(0)">
		<g id="color_index_g_00000105391797680198311990000004226972671872571276_">
			<path class="st1" d="M152-433.9c0,2.4-0.1,4.7-0.4,7.1c-0.2,2-1.9,3.5-3.9,3.5c-0.2,0-0.5,0-0.7-0.1c-2-0.4-3.4-2.2-3.2-4.3
				c0.2-2,0.4-4.1,0.4-6.2c0-2.1-0.1-4.2-0.4-6.2c-0.2-2,1.2-3.9,3.2-4.3c0.2,0,0.5-0.1,0.7-0.1c2,0,3.6,1.5,3.9,3.5
				C151.9-438.7,152-436.3,152-433.9z M109.3-385.3c-0.4,0-0.8,0.1-1.1,0.2c-3.9,1.2-8,1.9-12.2,2.1c-2.1,0.1-3.7,1.8-3.7,3.9
				c0,2.2,1.8,3.9,3.9,3.9c0.1,0,0.1,0,0.2,0c4.7-0.2,9.4-1.1,13.9-2.5c1-0.3,1.9-1,2.4-2c0.5-1,0.5-2.1,0.2-3.1
				C112.4-384.3,110.9-385.3,109.3-385.3z M43.6-422.4c-0.4-1.8-2-3-3.8-3c-0.2,0-0.5,0-0.7,0.1c-1.1,0.2-2,0.8-2.6,1.7
				c-0.6,0.9-0.8,2-0.6,3.1c1.1,4.6,2.7,9.1,4.9,13.3c0.7,1.3,2,2.1,3.5,2.1c0.7,0,1.4-0.2,1.9-0.5c1.8-1,2.5-3.3,1.5-5.1
				C46-414.5,44.5-418.4,43.6-422.4z M60.3-473.8c0.8,0,1.6-0.3,2.3-0.8c3.3-2.5,6.9-4.6,10.7-6.2c1.9-0.8,2.8-3,2.1-4.9
				c-0.6-1.5-2-2.6-3.7-2.6c-0.5,0-1.1,0.1-1.6,0.3c-4.3,1.8-8.5,4.2-12.3,7.1c-0.9,0.6-1.4,1.6-1.5,2.7c-0.1,1.1,0.2,2.1,0.9,2.9
				C58.1-474.4,59.1-473.8,60.3-473.8z M133.4-476.8c-0.7-0.7-1.7-1.1-2.7-1.1c-1.2,0-2.2,0.5-3,1.4c-1.3,1.6-1.2,3.9,0.3,5.3
				c3,2.8,5.7,6,8,9.5c0.7,1.1,1.9,1.8,3.2,1.8c0.7,0,1.4-0.2,2-0.5c0.9-0.5,1.6-1.4,1.8-2.5c0.2-1,0.1-2.2-0.5-3.1
				C139.9-470,136.8-473.6,133.4-476.8z M96-484.8c4.1,0.2,8.2,0.9,12.2,2.1c0.4,0.1,0.7,0.2,1.1,0.2c1.6,0,3.1-1,3.7-2.6
				c0.4-1,0.3-2.1-0.2-3.1c-0.5-1-1.3-1.7-2.4-2c-4.5-1.4-9.2-2.2-13.9-2.5c-0.1,0-0.1,0-0.2,0c-2.2,0-3.9,1.8-3.9,3.9
				C92.3-486.6,93.9-484.9,96-484.8z M39.1-442.5c0.2,0,0.5,0.1,0.7,0.1c1.8,0,3.4-1.2,3.8-3c0.9-4,2.4-7.9,4.2-11.6
				c0.9-1.8,0.3-4.1-1.5-5.1c-0.6-0.3-1.3-0.5-1.9-0.5c-1.5,0-2.8,0.8-3.5,2.1c-2.2,4.2-3.8,8.7-4.9,13.3c-0.2,1.1,0,2.2,0.6,3.1
				C37.2-443.3,38.1-442.7,39.1-442.5z M73.3-387c-3.8-1.6-7.4-3.7-10.7-6.2c-0.7-0.5-1.5-0.8-2.3-0.8c-1.2,0-2.2,0.5-3,1.4
				c-0.7,0.8-1,1.9-0.9,2.9c0.1,1.1,0.7,2.1,1.5,2.7c3.8,2.9,7.9,5.2,12.2,7.1c0.5,0.2,1,0.3,1.6,0.3c1.6,0,3.1-1,3.7-2.6
				C76.1-384.1,75.2-386.2,73.3-387z M141.2-407.4c-0.6-0.3-1.3-0.5-2-0.5c-1.3,0-2.5,0.7-3.2,1.8c-2.3,3.5-4.9,6.6-7.9,9.5
				c-1.5,1.4-1.6,3.8-0.3,5.3c0.7,0.9,1.8,1.4,3,1.4c1,0,2-0.4,2.7-1.1c3.5-3.2,6.5-6.9,9.1-10.8c0.6-0.9,0.8-2,0.5-3.1
				C142.8-406,142.1-406.8,141.2-407.4z M135.5-454.7c-0.7-1.3-2-2.2-3.5-2.2c-0.7,0-1.4,0.2-2,0.5c-1.8,1-2.4,3.3-1.5,5.1
				c1.2,2.5,2.2,5.2,2.9,7.9c0.4,1.7,2,3,3.8,3c0.2,0,0.5,0,0.7-0.1c1.1-0.2,2-0.8,2.6-1.7c0.6-0.9,0.8-2,0.5-3
				C138.1-448.5,137-451.6,135.5-454.7z M118.7-403c-0.8,0-1.6,0.3-2.3,0.7c-2.3,1.7-4.7,3.1-7.2,4.2c-1.9,0.8-2.8,3-2.1,4.9
				c0.6,1.5,2,2.6,3.7,2.6c0.5,0,1.1-0.1,1.6-0.3c3.1-1.4,6-3.1,8.7-5c0.9-0.6,1.4-1.6,1.6-2.7c0.1-1.1-0.2-2.2-0.9-3
				C120.9-402.5,119.8-403,118.7-403z M60.7-400c0.7,0.7,1.7,1.1,2.7,1.1c1.2,0,2.3-0.5,3-1.4c1.3-1.6,1.2-3.9-0.3-5.3
				c-2-1.9-3.8-4.1-5.4-6.4c-0.7-1.1-1.9-1.7-3.2-1.7c-0.7,0-1.4,0.2-2,0.5c-0.9,0.5-1.6,1.5-1.8,2.5c-0.2,1,0,2.1,0.6,3
				C56.1-404.9,58.2-402.3,60.7-400z M55.5-454.6c0.6,0.3,1.3,0.5,2,0.5c1.3,0,2.5-0.6,3.2-1.7c1.6-2.3,3.4-4.5,5.4-6.4
				c1.5-1.4,1.6-3.7,0.3-5.3c-0.7-0.9-1.8-1.4-3-1.4c-1,0-2,0.4-2.7,1.1c-2.4,2.3-4.6,4.9-6.5,7.7c-0.6,0.9-0.8,2-0.6,3
				C53.9-456.1,54.6-455.1,55.5-454.6z M110.7-477.3c-1.6,0-3.1,1-3.7,2.6c-0.7,1.9,0.2,4.1,2.1,4.9c2.5,1.1,5,2.5,7.3,4.2
				c0.7,0.5,1.5,0.7,2.3,0.7c1.2,0,2.2-0.5,3-1.4c0.7-0.8,1-1.9,0.9-3c-0.1-1.1-0.7-2-1.6-2.7c-2.7-2-5.6-3.7-8.7-5
				C111.8-477.2,111.3-477.3,110.7-477.3z M81.3-471.5c0.4,0,0.7-0.1,1.1-0.2c2.7-0.8,5.5-1.3,8.3-1.5c2-0.1,3.6-1.8,3.6-3.9
				c0-2.2-1.7-3.9-3.9-3.9c-0.1,0-0.2,0-0.3,0c-3.4,0.2-6.7,0.8-9.9,1.7c-1,0.3-1.9,1-2.4,2c-0.5,1-0.6,2.1-0.2,3.1
				C78.2-472.5,79.6-471.5,81.3-471.5z M54.2-429.7c-0.1-1.4-0.2-2.8-0.2-4.2c0-1.4,0.1-2.8,0.2-4.2c0.2-2-1.2-3.9-3.2-4.2
				c-0.2,0-0.5-0.1-0.7-0.1c-2,0-3.7,1.5-3.9,3.5c-0.2,1.7-0.3,3.4-0.3,5c0,1.7,0.1,3.4,0.3,5c0.2,2,1.9,3.5,3.9,3.5
				c0.2,0,0.5,0,0.7-0.1C53-425.8,54.4-427.7,54.2-429.7z M94.2-390.9c0-2-1.6-3.8-3.6-3.9c-2.8-0.2-5.6-0.7-8.3-1.5
				c-0.4-0.1-0.7-0.2-1.1-0.2c-1.6,0-3.1,1-3.7,2.6c-0.4,1-0.3,2.1,0.2,3.1c0.5,1,1.4,1.7,2.4,2c3.2,0.9,6.6,1.5,9.9,1.7
				c0.1,0,0.2,0,0.3,0C92.5-387,94.2-388.7,94.2-390.9z M135.8-427.4c-0.2,0-0.5-0.1-0.7-0.1c-1.8,0-3.3,1.2-3.8,3
				c-0.7,2.7-1.6,5.4-2.9,7.9c-0.9,1.8-0.2,4.1,1.5,5.1c0.6,0.3,1.3,0.5,2,0.5c1.5,0,2.8-0.8,3.5-2.2c1.5-3,2.6-6.2,3.5-9.5
				c0.3-1,0.1-2.1-0.5-3C137.8-426.6,136.9-427.2,135.8-427.4z M118.4-458.7c-0.7-0.8-1.7-1.2-2.8-1.2c-1.2,0-2.2,0.5-3,1.4
				c-1.3,1.6-1.2,3.8,0.2,5.3c1,1.1,2,2.2,2.9,3.4c0.7,1,1.9,1.7,3.2,1.7c0.7,0,1.4-0.2,1.9-0.5c0.9-0.5,1.6-1.5,1.9-2.5
				c0.2-1.1,0-2.2-0.6-3.1C121-455.9,119.7-457.4,118.4-458.7z M120.8-419.1c-0.6-0.3-1.3-0.5-1.9-0.5c-1.3,0-2.5,0.6-3.2,1.7
				c-0.9,1.2-1.8,2.3-2.9,3.4c-1.4,1.4-1.5,3.7-0.2,5.3c0.7,0.9,1.8,1.4,3,1.4c1.1,0,2.1-0.4,2.8-1.2c1.3-1.3,2.6-2.8,3.7-4.4
				c0.6-0.9,0.9-2,0.6-3.1C122.5-417.6,121.8-418.6,120.8-419.1z M81.4-409c-1.3-0.6-2.6-1.4-3.8-2.2c-0.7-0.5-1.4-0.7-2.2-0.7
				c-1.2,0-2.2,0.5-3,1.4c-0.7,0.8-1,1.9-0.9,3c0.1,1.1,0.8,2.1,1.7,2.7c1.6,1.1,3.2,2,4.9,2.9c0.5,0.3,1.1,0.4,1.7,0.4
				c1.6,0,3.1-1,3.7-2.6C84.2-406.1,83.3-408.2,81.4-409z M66.6-450.4c-0.6-0.3-1.3-0.5-2-0.5c-1.5,0-2.9,0.9-3.6,2.3
				c-0.8,1.7-1.5,3.5-2,5.4c-0.3,1.1-0.1,2.2,0.5,3.1c0.6,0.9,1.5,1.6,2.6,1.8c0.2,0,0.5,0.1,0.7,0.1c1.7,0,3.3-1.2,3.8-2.9
				c0.4-1.4,0.9-2.8,1.5-4.2C69.1-447.2,68.4-449.4,66.6-450.4z M100.2-460.6c0.3,0.1,0.7,0.1,1,0.1c1.6,0,3.1-1,3.7-2.6
				c0.4-1,0.3-2.2-0.2-3.1c-0.5-1-1.4-1.7-2.5-2c-1.8-0.5-3.7-0.8-5.6-1c-0.1,0-0.2,0-0.4,0c-2.2,0-3.9,1.8-3.9,3.9
				c0,2,1.5,3.7,3.6,3.9C97.3-461.2,98.8-461,100.2-460.6z M83.5-463.7c-0.6-1.5-2-2.6-3.7-2.6c-0.6,0-1.2,0.1-1.7,0.4
				c-1.7,0.8-3.4,1.8-4.9,2.9c-0.9,0.6-1.5,1.6-1.7,2.7c-0.1,1.1,0.2,2.2,0.9,3c0.7,0.9,1.8,1.4,3,1.4c0.8,0,1.6-0.2,2.2-0.7
				c1.2-0.8,2.5-1.6,3.8-2.2C83.3-459.7,84.2-461.8,83.5-463.7z M66.7-426.6c-0.5-1.7-2-2.9-3.8-2.9c-0.2,0-0.5,0-0.7,0.1
				c-1.1,0.2-2,0.8-2.6,1.8c-0.6,0.9-0.8,2.1-0.5,3.1c0.5,1.8,1.2,3.6,2,5.4c0.6,1.4,2,2.3,3.6,2.3c0.7,0,1.4-0.2,2-0.5
				c1.7-1,2.4-3.2,1.6-5C67.6-423.8,67.1-425.2,66.7-426.6z M96.2-398.7c0.1,0,0.2,0,0.4,0c1.9-0.2,3.8-0.5,5.6-1c1.1-0.3,2-1,2.5-2
				c0.5-1,0.6-2.1,0.2-3.1c-0.6-1.5-2-2.6-3.7-2.6c-0.3,0-0.7,0-1,0.1c-1.4,0.4-2.9,0.6-4.4,0.8c-2,0.2-3.6,1.9-3.6,3.9
				C92.3-400.5,94-398.7,96.2-398.7z M128.5-431.1c0.1-0.9,0.1-1.9,0.1-2.8s0-1.9-0.1-2.8c-0.2-2-1.9-3.6-3.9-3.6
				c-0.2,0-0.5,0-0.7,0.1c-2,0.4-3.4,2.1-3.2,4.2c0.1,0.7,0.1,1.5,0.1,2.2c0,0.7,0,1.5-0.1,2.2c-0.2,2,1.2,3.8,3.2,4.2
				c0.2,0,0.5,0.1,0.7,0.1C126.6-427.5,128.3-429.1,128.5-431.1z"/>
		</g>
	</g>
</g>
<rect x="143.1" y="20.7" class="st2" width="470.1" height="77.7"/>
<text transform="matrix(1 0 0 1 143.1414 47.0939)"><tspan x="0" y="0" class="st0 st3 st4">GLOBAL ASSOCIATION </tspan><tspan x="0" y="45.2" class="st0 st3 st4">OF IT EXPERTS </tspan></text>
</svg>
